<svg width="161" height="37" viewBox="0 0 161 37" fill="none" xmlns="http://www.w3.org/2000/svg">
<g clip-path="url(#clip0_2324_24513)">
<path d="M9.82358 0.19688C7.21822 0.588528 5.15675 1.61551 3.32335 3.4345C1.56891 5.17515 0.542555 7.11598 0.13026 9.48327C-0.0276405 10.3797 -0.0451849 12.2683 0.0951708 13.2518C0.612732 16.9594 2.79702 21.0238 6.4989 25.1579C9.84112 28.8916 14.7974 32.9821 19.8502 36.1588C20.4643 36.5505 21.0082 36.8638 21.052 36.8638C21.1661 36.8638 22.2889 36.1675 23.8679 35.1144C30.026 30.9978 35.4473 25.9673 38.4737 21.546C40.9211 17.969 42.1054 14.6878 42.1054 11.4502C42.1054 8.25611 41.0352 5.67124 38.7807 3.4345C37.1929 1.85921 35.6315 0.980175 33.4647 0.43187C32.3858 0.153366 30.3331 0.0576286 29.219 0.214287C26.1487 0.658154 23.4819 2.23345 21.6573 4.67907C21.3591 5.07071 21.0871 5.40144 21.052 5.40144C21.0169 5.40144 20.7538 5.08812 20.4643 4.70518C18.6748 2.30307 16.1747 0.779999 13.2097 0.266506C12.4991 0.144661 10.4289 0.101147 9.82358 0.19688ZM17.4466 6.92451C18.7098 7.49893 19.6748 9.10903 19.7976 10.8845C19.8941 12.2248 19.5257 13.3214 18.7713 14.0003C17.8063 14.8619 16.6045 14.7052 15.5343 13.5825C13.6834 11.6417 13.8062 7.80354 15.7448 6.91581C16.2098 6.69823 16.9554 6.70693 17.4466 6.92451ZM26.5698 7.03765C27.9558 7.9515 28.3154 10.4406 27.333 12.4598C26.9821 13.1909 26.3066 13.9481 25.7276 14.2527C24.2627 15.036 22.824 14.2004 22.403 12.3379C21.938 10.2579 22.8942 7.81224 24.4995 7.01154C24.9732 6.76785 25.1136 6.74174 25.6224 6.76785C26.0785 6.79396 26.2803 6.85489 26.5698 7.03765ZM11.5429 13.2866C11.9201 13.4259 12.1921 13.626 12.6219 14.0525C13.9202 15.3493 14.3939 17.2901 13.7272 18.6304C12.9553 20.2057 10.8499 19.8924 9.63936 18.0386C8.44634 16.2109 8.56915 13.9916 9.90253 13.304C10.3938 13.0516 10.8938 13.0516 11.5429 13.2866ZM32.1928 13.2953C34.149 14.2788 33.3068 18.2997 30.9208 19.4224C30.0348 19.8402 29.0084 19.6313 28.5435 18.9437C27.6488 17.6034 28.061 15.4711 29.4821 14.0525C30.3857 13.1474 31.3594 12.8776 32.1928 13.2953ZM22.3679 16.9681C25.3153 17.499 27.7014 19.7531 28.6488 22.895C28.8681 23.6 28.8856 23.8176 28.8944 25.1144C28.912 27.6644 28.4646 28.7001 27.2803 28.9003C26.754 28.9873 26.4557 28.8829 25.675 28.352C25.2802 28.0909 24.6399 27.7253 24.2451 27.5426C21.745 26.3763 18.6923 26.6896 16.4466 28.352C15.8062 28.8306 15.3764 28.9786 14.8676 28.909C13.6483 28.7262 13.1921 27.6905 13.2097 25.1144C13.2184 23.8176 13.236 23.6 13.4553 22.895C14.7097 18.7523 18.4467 16.2631 22.3679 16.9681Z" fill="url(#paint0_linear_2324_24513)"/>
</g>
<mask id="path-2-outside-1_2324_24513" maskUnits="userSpaceOnUse" x="53.135" y="3.77441" width="108" height="33" fill="black">
<rect fill="white" x="53.135" y="3.77441" width="108" height="33"/>
<path d="M61.373 29.313C59.0497 29.313 57.2625 28.9195 56.0115 28.1324C54.7605 27.3234 54.135 26.1427 54.135 24.5903C54.135 23.8032 54.4031 23.1582 54.9392 22.6553C55.4977 22.1305 56.2126 21.8681 57.0838 21.8681C57.6647 21.89 58.0668 22.0321 58.2902 22.2945C58.5359 22.5569 58.6588 22.7537 58.6588 22.8849C58.6588 22.9286 58.5582 23.0051 58.3572 23.1144C58.1561 23.2019 57.9551 23.3768 57.754 23.6392C57.553 23.8797 57.4524 24.2623 57.4524 24.7871C57.4524 25.771 57.7652 26.5581 58.3907 27.1484C59.0162 27.7169 60.0103 28.0012 61.373 28.0012C62.3336 28.0012 63.149 27.8262 63.8192 27.4764C64.5117 27.1047 65.0367 26.6346 65.3941 26.0661C65.7516 25.4758 65.9303 24.8745 65.9303 24.2623C65.9303 23.344 65.6622 22.5897 65.1261 21.9993C64.5899 21.409 63.8862 20.9061 63.015 20.4907C62.1661 20.0534 61.2613 19.638 60.3007 19.2444C59.3401 18.8508 58.4242 18.4026 57.553 17.8997C56.7041 17.3968 56.0004 16.7737 55.4419 16.0303C54.8834 15.265 54.593 14.3139 54.5706 13.177C54.5483 11.7995 54.8499 10.6844 55.4754 9.83169C56.1009 8.95711 56.9721 8.32304 58.0891 7.92947C59.2061 7.51405 60.4459 7.30633 61.8086 7.30633C62.8139 7.30633 63.7969 7.44845 64.7575 7.73269C65.7404 8.01693 66.5446 8.46516 67.1701 9.07737C67.818 9.66771 68.1419 10.4548 68.1419 11.4387C68.1419 12.2259 67.8626 12.8818 67.3042 13.4066C66.768 13.9094 66.0643 14.1609 65.1931 14.1609C64.6122 14.1172 64.199 13.975 63.9532 13.7345C63.7298 13.4721 63.6181 13.2754 63.6181 13.1442C63.6181 13.0786 63.7522 13.0021 64.0202 12.9146C64.2883 12.8053 64.5564 12.6304 64.8245 12.3899C65.0925 12.1275 65.2266 11.7448 65.2266 11.242C65.2266 10.4111 64.9027 9.77703 64.2548 9.33974C63.607 8.88058 62.8027 8.65101 61.8421 8.65101C60.3901 8.65101 59.3289 8.98991 58.6588 9.66771C58.0109 10.3236 57.687 11.067 57.687 11.8979C57.687 12.7069 57.9104 13.3628 58.3572 13.8657C58.804 14.3686 59.4742 14.8605 60.3677 15.3416C61.373 15.8663 62.3895 16.3583 63.4171 16.8174C64.4447 17.2547 65.3941 17.7467 66.2654 18.2933C67.159 18.8399 67.8738 19.5286 68.41 20.3595C68.9461 21.1685 69.2142 22.218 69.2142 23.508C69.2142 24.6231 68.8568 25.6179 68.1419 26.4925C67.4494 27.3671 66.5111 28.0558 65.3271 28.5587C64.1431 29.0616 62.8251 29.313 61.373 29.313Z"/>
<path d="M79.4319 29.0507C77.1309 29.0507 75.3326 28.3401 74.0369 26.9189C72.7636 25.4758 72.1269 23.5736 72.1269 21.2122C72.1939 19.7036 72.5737 18.3698 73.2662 17.211C73.9811 16.0522 74.9193 15.1448 76.081 14.4889C77.265 13.811 78.5718 13.4503 80.0016 13.4066C80.7834 13.4066 81.5765 13.5049 82.3807 13.7017C83.2073 13.8766 83.8886 14.2155 84.4248 14.7184C84.9833 15.1994 85.2625 15.8991 85.2625 16.8174C85.2625 17.4515 85.0615 18.0418 84.6593 18.5885C84.2572 19.1132 83.6987 19.3756 82.9839 19.3756C82.4924 19.3756 82.1126 19.2553 81.8446 19.0148C81.5765 18.7743 81.4425 18.5994 81.4425 18.4901C81.4425 18.4463 81.5318 18.3589 81.7105 18.2277C81.9116 18.0746 82.1015 17.8779 82.2802 17.6374C82.4589 17.375 82.5483 17.0579 82.5483 16.6862C82.5483 15.9866 82.2914 15.4728 81.7775 15.1448C81.2637 14.8168 80.6829 14.6419 80.0351 14.62C79.0521 14.62 78.2591 14.8168 77.6559 15.2104C77.0751 15.6039 76.6283 16.1287 76.3155 16.7846C76.0028 17.4187 75.7906 18.1184 75.6789 18.8836C75.5895 19.6489 75.5448 20.3923 75.5448 21.1138C75.5448 22.3164 75.7347 23.3987 76.1145 24.3607C76.4943 25.3009 77.0304 26.0443 77.7229 26.5909C78.4155 27.1375 79.242 27.4108 80.2026 27.4108C81.1856 27.4108 82.0121 27.2031 82.6823 26.7877C83.3525 26.3723 83.9668 25.76 84.5253 24.9511C84.6817 24.7324 84.9163 24.7105 85.229 24.8855C85.3854 24.9729 85.4971 25.0932 85.5641 25.2462C85.6311 25.3993 85.6088 25.5523 85.4971 25.7054C84.7599 26.733 83.844 27.5529 82.7493 28.1651C81.6547 28.7555 80.5489 29.0507 79.4319 29.0507Z"/>
<path d="M95.8384 29.0507C94.2746 29.0507 92.9007 28.6899 91.7167 27.9684C90.5551 27.2468 89.6503 26.3067 89.0025 25.1478C88.3546 23.989 88.0307 22.7537 88.0307 21.4418C88.0307 20.1518 88.2653 19.0039 88.7344 17.9981C89.2035 16.9923 89.8179 16.1506 90.5774 15.4728C91.3593 14.795 92.2082 14.2811 93.1241 13.9313C94.04 13.5815 94.9448 13.4066 95.8384 13.4066C97.4021 13.4066 98.7648 13.7673 99.9265 14.4889C101.11 15.2104 102.026 16.1506 102.674 17.3094C103.322 18.4682 103.646 19.7036 103.646 21.0154C103.646 22.3054 103.4 23.4533 102.909 24.4591C102.44 25.4649 101.814 26.3067 101.032 26.9845C100.273 27.6623 99.435 28.1761 98.5191 28.5259C97.6032 28.8757 96.7096 29.0507 95.8384 29.0507ZM95.8384 27.8372C96.933 27.8372 97.7931 27.5201 98.4186 26.8861C99.0664 26.252 99.5244 25.4211 99.7925 24.3935C100.083 23.344 100.228 22.218 100.228 21.0154C100.228 19.8566 100.083 18.7962 99.7925 17.8341C99.502 16.8721 99.0329 16.0959 98.3851 15.5056C97.7372 14.9152 96.8883 14.62 95.8384 14.62C94.7437 14.62 93.8725 14.9371 93.2246 15.5711C92.5768 16.1834 92.1188 17.0033 91.8508 18.0309C91.5827 19.0367 91.4486 20.1518 91.4486 21.3762C91.4486 22.5132 91.5827 23.5736 91.8508 24.5575C92.1412 25.5414 92.6103 26.3395 93.2581 26.9517C93.906 27.542 94.7661 27.8372 95.8384 27.8372Z"/>
<path d="M114.196 29.0507C112.633 29.0507 111.259 28.6899 110.075 27.9684C108.913 27.2468 108.008 26.3067 107.361 25.1478C106.713 23.989 106.389 22.7537 106.389 21.4418C106.389 20.1518 106.623 19.0039 107.092 17.9981C107.562 16.9923 108.176 16.1506 108.936 15.4728C109.717 14.795 110.566 14.2811 111.482 13.9313C112.398 13.5815 113.303 13.4066 114.196 13.4066C115.76 13.4066 117.123 13.7673 118.285 14.4889C119.469 15.2104 120.385 16.1506 121.032 17.3094C121.68 18.4682 122.004 19.7036 122.004 21.0154C122.004 22.3054 121.758 23.4533 121.267 24.4591C120.798 25.4649 120.172 26.3067 119.39 26.9845C118.631 27.6623 117.793 28.1761 116.877 28.5259C115.961 28.8757 115.068 29.0507 114.196 29.0507ZM114.196 27.8372C115.291 27.8372 116.151 27.5201 116.777 26.8861C117.425 26.252 117.882 25.4211 118.151 24.3935C118.441 23.344 118.586 22.218 118.586 21.0154C118.586 19.8566 118.441 18.7962 118.151 17.8341C117.86 16.8721 117.391 16.0959 116.743 15.5056C116.095 14.9152 115.246 14.62 114.196 14.62C113.102 14.62 112.231 14.9371 111.583 15.5711C110.935 16.1834 110.477 17.0033 110.209 18.0309C109.941 19.0367 109.807 20.1518 109.807 21.3762C109.807 22.5132 109.941 23.5736 110.209 24.5575C110.499 25.5414 110.968 26.3395 111.616 26.9517C112.264 27.542 113.124 27.8372 114.196 27.8372Z"/>
<path d="M126.46 29.1163C126.259 29.1163 126.102 29.0507 125.991 28.9195C125.879 28.7883 125.823 28.6352 125.823 28.4603V9.30694C125.823 8.91338 125.801 8.55261 125.756 8.22465C125.734 7.87481 125.611 7.60151 125.388 7.40473C125.164 7.18608 124.74 7.07675 124.114 7.07675C123.913 7.07675 123.723 7.05489 123.545 7.01116C123.388 6.94557 123.31 6.74879 123.31 6.42082C123.31 6.09285 123.489 5.89607 123.846 5.83047C124.874 5.67742 125.656 5.52437 126.192 5.37132C126.75 5.21827 127.175 5.08708 127.465 4.97775C127.756 4.86843 128.012 4.80284 128.236 4.78097C128.415 4.75911 128.56 4.79191 128.671 4.87936C128.805 4.96682 128.872 5.14174 128.872 5.40411V15.3088H128.973C129.643 14.6528 130.392 14.1718 131.218 13.8657C132.045 13.5596 132.838 13.4066 133.597 13.4066C134.915 13.4066 136.099 13.7345 137.149 14.3905C138.222 15.0464 139.07 15.9538 139.696 17.1126C140.321 18.2496 140.634 19.5833 140.634 21.1138C140.634 22.6006 140.277 23.9453 139.562 25.1478C138.847 26.3504 137.909 27.3015 136.747 28.0012C135.586 28.7008 134.323 29.0507 132.961 29.0507C130.972 29.0507 129.252 28.515 127.8 27.4436H127.633C127.476 27.7716 127.32 28.1324 127.164 28.5259C127.029 28.9195 126.795 29.1163 126.46 29.1163ZM132.659 27.9356C133.999 27.9356 135.094 27.3343 135.943 26.1317C136.792 24.9292 137.216 23.3003 137.216 21.245C137.216 20.2174 137.049 19.2335 136.714 18.2933C136.401 17.3531 135.887 16.5769 135.172 15.9647C134.48 15.3525 133.564 15.0464 132.424 15.0464C131.665 15.0464 130.995 15.1776 130.414 15.44C129.833 15.7023 129.319 16.074 128.872 16.5551V25.2134C128.94 25.5195 129.118 25.8912 129.409 26.3285C129.721 26.7439 130.146 27.1157 130.682 27.4436C131.218 27.7716 131.877 27.9356 132.659 27.9356Z"/>
<path d="M144.686 35.8068C144.038 35.8068 143.424 35.6647 142.843 35.3805C142.285 35.0962 141.838 34.7136 141.503 34.2326C141.168 33.7734 141 33.2705 141 32.7239C141.023 32.1336 141.157 31.6744 141.402 31.3464C141.626 31.0403 141.883 30.8217 142.173 30.6905C142.463 30.5812 142.709 30.5156 142.91 30.4937C143.111 30.4719 143.19 30.4609 143.145 30.4609C143.569 30.4609 143.893 30.5375 144.117 30.6905C144.34 30.8654 144.452 31.0075 144.452 31.1169C144.452 31.1606 144.362 31.259 144.184 31.412C144.027 31.587 143.938 31.8821 143.916 32.2976C143.893 32.6911 144.016 33.0737 144.284 33.4454C144.552 33.8171 144.965 34.003 145.524 34.003C146.149 34.003 146.719 33.7734 147.233 33.3143C147.747 32.877 148.205 32.3304 148.607 31.6744C149.009 31.0185 149.355 30.3844 149.646 29.7722C149.802 29.2912 149.791 28.7883 149.612 28.2635C149.076 27.0829 148.551 25.8256 148.037 24.4919C147.523 23.1582 147.021 21.8681 146.529 20.6219C146.06 19.3756 145.591 18.2824 145.122 17.3422C144.764 16.5332 144.418 15.9647 144.083 15.6367C143.748 15.2869 143.245 15.0683 142.575 14.9808C142.285 14.9371 142.084 14.8933 141.972 14.8496C141.883 14.8059 141.827 14.6419 141.804 14.3577C141.782 13.986 141.883 13.7892 142.106 13.7673C142.352 13.7236 142.642 13.6908 142.977 13.6689C144.362 13.6033 145.446 13.8001 146.228 14.2593C147.01 14.7184 147.646 15.4946 148.138 16.5878C148.45 17.2657 148.797 18.1074 149.176 19.1132C149.556 20.119 149.958 21.1357 150.383 22.1633C150.807 23.191 151.221 24.1202 151.623 24.9511H151.723L155.007 16.3583C155.231 15.7242 155.242 15.3306 155.041 15.1776C154.84 15.0245 154.404 14.948 153.734 14.948C153.533 14.948 153.365 14.9371 153.231 14.9152C153.097 14.8715 153.019 14.6856 152.997 14.3577C152.997 14.2265 153.03 14.0844 153.097 13.9313C153.186 13.7783 153.309 13.7017 153.466 13.7017C154.114 13.7236 154.672 13.7455 155.141 13.7673C155.61 13.7892 156.135 13.8001 156.716 13.8001C157.118 13.8001 157.442 13.8001 157.688 13.8001C157.934 13.7783 158.19 13.7673 158.459 13.7673C158.727 13.7455 159.073 13.7236 159.497 13.7017C159.676 13.7017 159.799 13.7783 159.866 13.9313C159.955 14.0844 160 14.2265 160 14.3577C159.978 14.6856 159.888 14.8715 159.732 14.9152C159.598 14.9371 159.442 14.948 159.263 14.948C158.526 14.948 157.934 15.0792 157.487 15.3416C157.062 15.6039 156.694 16.1178 156.381 16.883C156.381 16.883 156.258 17.1673 156.012 17.7357C155.789 18.3042 155.487 19.0476 155.108 19.9659C154.728 20.8842 154.326 21.8572 153.901 22.8849C153.477 23.8906 153.075 24.8527 152.695 25.771C152.315 26.6893 152.002 27.4436 151.757 28.034C151.511 28.6243 151.377 28.9413 151.355 28.9851C151.064 29.6629 150.707 30.3953 150.282 31.1825C149.88 31.9915 149.4 32.7348 148.841 33.4126C148.305 34.1123 147.691 34.6808 146.998 35.1181C146.306 35.5772 145.535 35.8068 144.686 35.8068Z"/>
</mask>
<path d="M61.373 29.313C59.0497 29.313 57.2625 28.9195 56.0115 28.1324C54.7605 27.3234 54.135 26.1427 54.135 24.5903C54.135 23.8032 54.4031 23.1582 54.9392 22.6553C55.4977 22.1305 56.2126 21.8681 57.0838 21.8681C57.6647 21.89 58.0668 22.0321 58.2902 22.2945C58.5359 22.5569 58.6588 22.7537 58.6588 22.8849C58.6588 22.9286 58.5582 23.0051 58.3572 23.1144C58.1561 23.2019 57.9551 23.3768 57.754 23.6392C57.553 23.8797 57.4524 24.2623 57.4524 24.7871C57.4524 25.771 57.7652 26.5581 58.3907 27.1484C59.0162 27.7169 60.0103 28.0012 61.373 28.0012C62.3336 28.0012 63.149 27.8262 63.8192 27.4764C64.5117 27.1047 65.0367 26.6346 65.3941 26.0661C65.7516 25.4758 65.9303 24.8745 65.9303 24.2623C65.9303 23.344 65.6622 22.5897 65.1261 21.9993C64.5899 21.409 63.8862 20.9061 63.015 20.4907C62.1661 20.0534 61.2613 19.638 60.3007 19.2444C59.3401 18.8508 58.4242 18.4026 57.553 17.8997C56.7041 17.3968 56.0004 16.7737 55.4419 16.0303C54.8834 15.265 54.593 14.3139 54.5706 13.177C54.5483 11.7995 54.8499 10.6844 55.4754 9.83169C56.1009 8.95711 56.9721 8.32304 58.0891 7.92947C59.2061 7.51405 60.4459 7.30633 61.8086 7.30633C62.8139 7.30633 63.7969 7.44845 64.7575 7.73269C65.7404 8.01693 66.5446 8.46516 67.1701 9.07737C67.818 9.66771 68.1419 10.4548 68.1419 11.4387C68.1419 12.2259 67.8626 12.8818 67.3042 13.4066C66.768 13.9094 66.0643 14.1609 65.1931 14.1609C64.6122 14.1172 64.199 13.975 63.9532 13.7345C63.7298 13.4721 63.6181 13.2754 63.6181 13.1442C63.6181 13.0786 63.7522 13.0021 64.0202 12.9146C64.2883 12.8053 64.5564 12.6304 64.8245 12.3899C65.0925 12.1275 65.2266 11.7448 65.2266 11.242C65.2266 10.4111 64.9027 9.77703 64.2548 9.33974C63.607 8.88058 62.8027 8.65101 61.8421 8.65101C60.3901 8.65101 59.3289 8.98991 58.6588 9.66771C58.0109 10.3236 57.687 11.067 57.687 11.8979C57.687 12.7069 57.9104 13.3628 58.3572 13.8657C58.804 14.3686 59.4742 14.8605 60.3677 15.3416C61.373 15.8663 62.3895 16.3583 63.4171 16.8174C64.4447 17.2547 65.3941 17.7467 66.2654 18.2933C67.159 18.8399 67.8738 19.5286 68.41 20.3595C68.9461 21.1685 69.2142 22.218 69.2142 23.508C69.2142 24.6231 68.8568 25.6179 68.1419 26.4925C67.4494 27.3671 66.5111 28.0558 65.3271 28.5587C64.1431 29.0616 62.8251 29.313 61.373 29.313Z" fill="#001D23"/>
<path d="M79.4319 29.0507C77.1309 29.0507 75.3326 28.3401 74.0369 26.9189C72.7636 25.4758 72.1269 23.5736 72.1269 21.2122C72.1939 19.7036 72.5737 18.3698 73.2662 17.211C73.9811 16.0522 74.9193 15.1448 76.081 14.4889C77.265 13.811 78.5718 13.4503 80.0016 13.4066C80.7834 13.4066 81.5765 13.5049 82.3807 13.7017C83.2073 13.8766 83.8886 14.2155 84.4248 14.7184C84.9833 15.1994 85.2625 15.8991 85.2625 16.8174C85.2625 17.4515 85.0615 18.0418 84.6593 18.5885C84.2572 19.1132 83.6987 19.3756 82.9839 19.3756C82.4924 19.3756 82.1126 19.2553 81.8446 19.0148C81.5765 18.7743 81.4425 18.5994 81.4425 18.4901C81.4425 18.4463 81.5318 18.3589 81.7105 18.2277C81.9116 18.0746 82.1015 17.8779 82.2802 17.6374C82.4589 17.375 82.5483 17.0579 82.5483 16.6862C82.5483 15.9866 82.2914 15.4728 81.7775 15.1448C81.2637 14.8168 80.6829 14.6419 80.0351 14.62C79.0521 14.62 78.2591 14.8168 77.6559 15.2104C77.0751 15.6039 76.6283 16.1287 76.3155 16.7846C76.0028 17.4187 75.7906 18.1184 75.6789 18.8836C75.5895 19.6489 75.5448 20.3923 75.5448 21.1138C75.5448 22.3164 75.7347 23.3987 76.1145 24.3607C76.4943 25.3009 77.0304 26.0443 77.7229 26.5909C78.4155 27.1375 79.242 27.4108 80.2026 27.4108C81.1856 27.4108 82.0121 27.2031 82.6823 26.7877C83.3525 26.3723 83.9668 25.76 84.5253 24.9511C84.6817 24.7324 84.9163 24.7105 85.229 24.8855C85.3854 24.9729 85.4971 25.0932 85.5641 25.2462C85.6311 25.3993 85.6088 25.5523 85.4971 25.7054C84.7599 26.733 83.844 27.5529 82.7493 28.1651C81.6547 28.7555 80.5489 29.0507 79.4319 29.0507Z" fill="#001D23"/>
<path d="M95.8384 29.0507C94.2746 29.0507 92.9007 28.6899 91.7167 27.9684C90.5551 27.2468 89.6503 26.3067 89.0025 25.1478C88.3546 23.989 88.0307 22.7537 88.0307 21.4418C88.0307 20.1518 88.2653 19.0039 88.7344 17.9981C89.2035 16.9923 89.8179 16.1506 90.5774 15.4728C91.3593 14.795 92.2082 14.2811 93.1241 13.9313C94.04 13.5815 94.9448 13.4066 95.8384 13.4066C97.4021 13.4066 98.7648 13.7673 99.9265 14.4889C101.11 15.2104 102.026 16.1506 102.674 17.3094C103.322 18.4682 103.646 19.7036 103.646 21.0154C103.646 22.3054 103.4 23.4533 102.909 24.4591C102.44 25.4649 101.814 26.3067 101.032 26.9845C100.273 27.6623 99.435 28.1761 98.5191 28.5259C97.6032 28.8757 96.7096 29.0507 95.8384 29.0507ZM95.8384 27.8372C96.933 27.8372 97.7931 27.5201 98.4186 26.8861C99.0664 26.252 99.5244 25.4211 99.7925 24.3935C100.083 23.344 100.228 22.218 100.228 21.0154C100.228 19.8566 100.083 18.7962 99.7925 17.8341C99.502 16.8721 99.0329 16.0959 98.3851 15.5056C97.7372 14.9152 96.8883 14.62 95.8384 14.62C94.7437 14.62 93.8725 14.9371 93.2246 15.5711C92.5768 16.1834 92.1188 17.0033 91.8508 18.0309C91.5827 19.0367 91.4486 20.1518 91.4486 21.3762C91.4486 22.5132 91.5827 23.5736 91.8508 24.5575C92.1412 25.5414 92.6103 26.3395 93.2581 26.9517C93.906 27.542 94.7661 27.8372 95.8384 27.8372Z" fill="#001D23"/>
<path d="M114.196 29.0507C112.633 29.0507 111.259 28.6899 110.075 27.9684C108.913 27.2468 108.008 26.3067 107.361 25.1478C106.713 23.989 106.389 22.7537 106.389 21.4418C106.389 20.1518 106.623 19.0039 107.092 17.9981C107.562 16.9923 108.176 16.1506 108.936 15.4728C109.717 14.795 110.566 14.2811 111.482 13.9313C112.398 13.5815 113.303 13.4066 114.196 13.4066C115.76 13.4066 117.123 13.7673 118.285 14.4889C119.469 15.2104 120.385 16.1506 121.032 17.3094C121.68 18.4682 122.004 19.7036 122.004 21.0154C122.004 22.3054 121.758 23.4533 121.267 24.4591C120.798 25.4649 120.172 26.3067 119.39 26.9845C118.631 27.6623 117.793 28.1761 116.877 28.5259C115.961 28.8757 115.068 29.0507 114.196 29.0507ZM114.196 27.8372C115.291 27.8372 116.151 27.5201 116.777 26.8861C117.425 26.252 117.882 25.4211 118.151 24.3935C118.441 23.344 118.586 22.218 118.586 21.0154C118.586 19.8566 118.441 18.7962 118.151 17.8341C117.86 16.8721 117.391 16.0959 116.743 15.5056C116.095 14.9152 115.246 14.62 114.196 14.62C113.102 14.62 112.231 14.9371 111.583 15.5711C110.935 16.1834 110.477 17.0033 110.209 18.0309C109.941 19.0367 109.807 20.1518 109.807 21.3762C109.807 22.5132 109.941 23.5736 110.209 24.5575C110.499 25.5414 110.968 26.3395 111.616 26.9517C112.264 27.542 113.124 27.8372 114.196 27.8372Z" fill="#001D23"/>
<path d="M126.46 29.1163C126.259 29.1163 126.102 29.0507 125.991 28.9195C125.879 28.7883 125.823 28.6352 125.823 28.4603V9.30694C125.823 8.91338 125.801 8.55261 125.756 8.22465C125.734 7.87481 125.611 7.60151 125.388 7.40473C125.164 7.18608 124.74 7.07675 124.114 7.07675C123.913 7.07675 123.723 7.05489 123.545 7.01116C123.388 6.94557 123.31 6.74879 123.31 6.42082C123.31 6.09285 123.489 5.89607 123.846 5.83047C124.874 5.67742 125.656 5.52437 126.192 5.37132C126.75 5.21827 127.175 5.08708 127.465 4.97775C127.756 4.86843 128.012 4.80284 128.236 4.78097C128.415 4.75911 128.56 4.79191 128.671 4.87936C128.805 4.96682 128.872 5.14174 128.872 5.40411V15.3088H128.973C129.643 14.6528 130.392 14.1718 131.218 13.8657C132.045 13.5596 132.838 13.4066 133.597 13.4066C134.915 13.4066 136.099 13.7345 137.149 14.3905C138.222 15.0464 139.07 15.9538 139.696 17.1126C140.321 18.2496 140.634 19.5833 140.634 21.1138C140.634 22.6006 140.277 23.9453 139.562 25.1478C138.847 26.3504 137.909 27.3015 136.747 28.0012C135.586 28.7008 134.323 29.0507 132.961 29.0507C130.972 29.0507 129.252 28.515 127.8 27.4436H127.633C127.476 27.7716 127.32 28.1324 127.164 28.5259C127.029 28.9195 126.795 29.1163 126.46 29.1163ZM132.659 27.9356C133.999 27.9356 135.094 27.3343 135.943 26.1317C136.792 24.9292 137.216 23.3003 137.216 21.245C137.216 20.2174 137.049 19.2335 136.714 18.2933C136.401 17.3531 135.887 16.5769 135.172 15.9647C134.48 15.3525 133.564 15.0464 132.424 15.0464C131.665 15.0464 130.995 15.1776 130.414 15.44C129.833 15.7023 129.319 16.074 128.872 16.5551V25.2134C128.94 25.5195 129.118 25.8912 129.409 26.3285C129.721 26.7439 130.146 27.1157 130.682 27.4436C131.218 27.7716 131.877 27.9356 132.659 27.9356Z" fill="#001D23"/>
<path d="M144.686 35.8068C144.038 35.8068 143.424 35.6647 142.843 35.3805C142.285 35.0962 141.838 34.7136 141.503 34.2326C141.168 33.7734 141 33.2705 141 32.7239C141.023 32.1336 141.157 31.6744 141.402 31.3464C141.626 31.0403 141.883 30.8217 142.173 30.6905C142.463 30.5812 142.709 30.5156 142.91 30.4937C143.111 30.4719 143.19 30.4609 143.145 30.4609C143.569 30.4609 143.893 30.5375 144.117 30.6905C144.34 30.8654 144.452 31.0075 144.452 31.1169C144.452 31.1606 144.362 31.259 144.184 31.412C144.027 31.587 143.938 31.8821 143.916 32.2976C143.893 32.6911 144.016 33.0737 144.284 33.4454C144.552 33.8171 144.965 34.003 145.524 34.003C146.149 34.003 146.719 33.7734 147.233 33.3143C147.747 32.877 148.205 32.3304 148.607 31.6744C149.009 31.0185 149.355 30.3844 149.646 29.7722C149.802 29.2912 149.791 28.7883 149.612 28.2635C149.076 27.0829 148.551 25.8256 148.037 24.4919C147.523 23.1582 147.021 21.8681 146.529 20.6219C146.06 19.3756 145.591 18.2824 145.122 17.3422C144.764 16.5332 144.418 15.9647 144.083 15.6367C143.748 15.2869 143.245 15.0683 142.575 14.9808C142.285 14.9371 142.084 14.8933 141.972 14.8496C141.883 14.8059 141.827 14.6419 141.804 14.3577C141.782 13.986 141.883 13.7892 142.106 13.7673C142.352 13.7236 142.642 13.6908 142.977 13.6689C144.362 13.6033 145.446 13.8001 146.228 14.2593C147.01 14.7184 147.646 15.4946 148.138 16.5878C148.45 17.2657 148.797 18.1074 149.176 19.1132C149.556 20.119 149.958 21.1357 150.383 22.1633C150.807 23.191 151.221 24.1202 151.623 24.9511H151.723L155.007 16.3583C155.231 15.7242 155.242 15.3306 155.041 15.1776C154.84 15.0245 154.404 14.948 153.734 14.948C153.533 14.948 153.365 14.9371 153.231 14.9152C153.097 14.8715 153.019 14.6856 152.997 14.3577C152.997 14.2265 153.03 14.0844 153.097 13.9313C153.186 13.7783 153.309 13.7017 153.466 13.7017C154.114 13.7236 154.672 13.7455 155.141 13.7673C155.61 13.7892 156.135 13.8001 156.716 13.8001C157.118 13.8001 157.442 13.8001 157.688 13.8001C157.934 13.7783 158.19 13.7673 158.459 13.7673C158.727 13.7455 159.073 13.7236 159.497 13.7017C159.676 13.7017 159.799 13.7783 159.866 13.9313C159.955 14.0844 160 14.2265 160 14.3577C159.978 14.6856 159.888 14.8715 159.732 14.9152C159.598 14.9371 159.442 14.948 159.263 14.948C158.526 14.948 157.934 15.0792 157.487 15.3416C157.062 15.6039 156.694 16.1178 156.381 16.883C156.381 16.883 156.258 17.1673 156.012 17.7357C155.789 18.3042 155.487 19.0476 155.108 19.9659C154.728 20.8842 154.326 21.8572 153.901 22.8849C153.477 23.8906 153.075 24.8527 152.695 25.771C152.315 26.6893 152.002 27.4436 151.757 28.034C151.511 28.6243 151.377 28.9413 151.355 28.9851C151.064 29.6629 150.707 30.3953 150.282 31.1825C149.88 31.9915 149.4 32.7348 148.841 33.4126C148.305 34.1123 147.691 34.6808 146.998 35.1181C146.306 35.5772 145.535 35.8068 144.686 35.8068Z" fill="#001D23"/>
<path d="M61.373 29.313C59.0497 29.313 57.2625 28.9195 56.0115 28.1324C54.7605 27.3234 54.135 26.1427 54.135 24.5903C54.135 23.8032 54.4031 23.1582 54.9392 22.6553C55.4977 22.1305 56.2126 21.8681 57.0838 21.8681C57.6647 21.89 58.0668 22.0321 58.2902 22.2945C58.5359 22.5569 58.6588 22.7537 58.6588 22.8849C58.6588 22.9286 58.5582 23.0051 58.3572 23.1144C58.1561 23.2019 57.9551 23.3768 57.754 23.6392C57.553 23.8797 57.4524 24.2623 57.4524 24.7871C57.4524 25.771 57.7652 26.5581 58.3907 27.1484C59.0162 27.7169 60.0103 28.0012 61.373 28.0012C62.3336 28.0012 63.149 27.8262 63.8192 27.4764C64.5117 27.1047 65.0367 26.6346 65.3941 26.0661C65.7516 25.4758 65.9303 24.8745 65.9303 24.2623C65.9303 23.344 65.6622 22.5897 65.1261 21.9993C64.5899 21.409 63.8862 20.9061 63.015 20.4907C62.1661 20.0534 61.2613 19.638 60.3007 19.2444C59.3401 18.8508 58.4242 18.4026 57.553 17.8997C56.7041 17.3968 56.0004 16.7737 55.4419 16.0303C54.8834 15.265 54.593 14.3139 54.5706 13.177C54.5483 11.7995 54.8499 10.6844 55.4754 9.83169C56.1009 8.95711 56.9721 8.32304 58.0891 7.92947C59.2061 7.51405 60.4459 7.30633 61.8086 7.30633C62.8139 7.30633 63.7969 7.44845 64.7575 7.73269C65.7404 8.01693 66.5446 8.46516 67.1701 9.07737C67.818 9.66771 68.1419 10.4548 68.1419 11.4387C68.1419 12.2259 67.8626 12.8818 67.3042 13.4066C66.768 13.9094 66.0643 14.1609 65.1931 14.1609C64.6122 14.1172 64.199 13.975 63.9532 13.7345C63.7298 13.4721 63.6181 13.2754 63.6181 13.1442C63.6181 13.0786 63.7522 13.0021 64.0202 12.9146C64.2883 12.8053 64.5564 12.6304 64.8245 12.3899C65.0925 12.1275 65.2266 11.7448 65.2266 11.242C65.2266 10.4111 64.9027 9.77703 64.2548 9.33974C63.607 8.88058 62.8027 8.65101 61.8421 8.65101C60.3901 8.65101 59.3289 8.98991 58.6588 9.66771C58.0109 10.3236 57.687 11.067 57.687 11.8979C57.687 12.7069 57.9104 13.3628 58.3572 13.8657C58.804 14.3686 59.4742 14.8605 60.3677 15.3416C61.373 15.8663 62.3895 16.3583 63.4171 16.8174C64.4447 17.2547 65.3941 17.7467 66.2654 18.2933C67.159 18.8399 67.8738 19.5286 68.41 20.3595C68.9461 21.1685 69.2142 22.218 69.2142 23.508C69.2142 24.6231 68.8568 25.6179 68.1419 26.4925C67.4494 27.3671 66.5111 28.0558 65.3271 28.5587C64.1431 29.0616 62.8251 29.313 61.373 29.313Z" stroke="#001D23" mask="url(#path-2-outside-1_2324_24513)"/>
<path d="M79.4319 29.0507C77.1309 29.0507 75.3326 28.3401 74.0369 26.9189C72.7636 25.4758 72.1269 23.5736 72.1269 21.2122C72.1939 19.7036 72.5737 18.3698 73.2662 17.211C73.9811 16.0522 74.9193 15.1448 76.081 14.4889C77.265 13.811 78.5718 13.4503 80.0016 13.4066C80.7834 13.4066 81.5765 13.5049 82.3807 13.7017C83.2073 13.8766 83.8886 14.2155 84.4248 14.7184C84.9833 15.1994 85.2625 15.8991 85.2625 16.8174C85.2625 17.4515 85.0615 18.0418 84.6593 18.5885C84.2572 19.1132 83.6987 19.3756 82.9839 19.3756C82.4924 19.3756 82.1126 19.2553 81.8446 19.0148C81.5765 18.7743 81.4425 18.5994 81.4425 18.4901C81.4425 18.4463 81.5318 18.3589 81.7105 18.2277C81.9116 18.0746 82.1015 17.8779 82.2802 17.6374C82.4589 17.375 82.5483 17.0579 82.5483 16.6862C82.5483 15.9866 82.2914 15.4728 81.7775 15.1448C81.2637 14.8168 80.6829 14.6419 80.0351 14.62C79.0521 14.62 78.2591 14.8168 77.6559 15.2104C77.0751 15.6039 76.6283 16.1287 76.3155 16.7846C76.0028 17.4187 75.7906 18.1184 75.6789 18.8836C75.5895 19.6489 75.5448 20.3923 75.5448 21.1138C75.5448 22.3164 75.7347 23.3987 76.1145 24.3607C76.4943 25.3009 77.0304 26.0443 77.7229 26.5909C78.4155 27.1375 79.242 27.4108 80.2026 27.4108C81.1856 27.4108 82.0121 27.2031 82.6823 26.7877C83.3525 26.3723 83.9668 25.76 84.5253 24.9511C84.6817 24.7324 84.9163 24.7105 85.229 24.8855C85.3854 24.9729 85.4971 25.0932 85.5641 25.2462C85.6311 25.3993 85.6088 25.5523 85.4971 25.7054C84.7599 26.733 83.844 27.5529 82.7493 28.1651C81.6547 28.7555 80.5489 29.0507 79.4319 29.0507Z" stroke="#001D23" mask="url(#path-2-outside-1_2324_24513)"/>
<path d="M95.8384 29.0507C94.2746 29.0507 92.9007 28.6899 91.7167 27.9684C90.5551 27.2468 89.6503 26.3067 89.0025 25.1478C88.3546 23.989 88.0307 22.7537 88.0307 21.4418C88.0307 20.1518 88.2653 19.0039 88.7344 17.9981C89.2035 16.9923 89.8179 16.1506 90.5774 15.4728C91.3593 14.795 92.2082 14.2811 93.1241 13.9313C94.04 13.5815 94.9448 13.4066 95.8384 13.4066C97.4021 13.4066 98.7648 13.7673 99.9265 14.4889C101.11 15.2104 102.026 16.1506 102.674 17.3094C103.322 18.4682 103.646 19.7036 103.646 21.0154C103.646 22.3054 103.4 23.4533 102.909 24.4591C102.44 25.4649 101.814 26.3067 101.032 26.9845C100.273 27.6623 99.435 28.1761 98.5191 28.5259C97.6032 28.8757 96.7096 29.0507 95.8384 29.0507ZM95.8384 27.8372C96.933 27.8372 97.7931 27.5201 98.4186 26.8861C99.0664 26.252 99.5244 25.4211 99.7925 24.3935C100.083 23.344 100.228 22.218 100.228 21.0154C100.228 19.8566 100.083 18.7962 99.7925 17.8341C99.502 16.8721 99.0329 16.0959 98.3851 15.5056C97.7372 14.9152 96.8883 14.62 95.8384 14.62C94.7437 14.62 93.8725 14.9371 93.2246 15.5711C92.5768 16.1834 92.1188 17.0033 91.8508 18.0309C91.5827 19.0367 91.4486 20.1518 91.4486 21.3762C91.4486 22.5132 91.5827 23.5736 91.8508 24.5575C92.1412 25.5414 92.6103 26.3395 93.2581 26.9517C93.906 27.542 94.7661 27.8372 95.8384 27.8372Z" stroke="#001D23" mask="url(#path-2-outside-1_2324_24513)"/>
<path d="M114.196 29.0507C112.633 29.0507 111.259 28.6899 110.075 27.9684C108.913 27.2468 108.008 26.3067 107.361 25.1478C106.713 23.989 106.389 22.7537 106.389 21.4418C106.389 20.1518 106.623 19.0039 107.092 17.9981C107.562 16.9923 108.176 16.1506 108.936 15.4728C109.717 14.795 110.566 14.2811 111.482 13.9313C112.398 13.5815 113.303 13.4066 114.196 13.4066C115.76 13.4066 117.123 13.7673 118.285 14.4889C119.469 15.2104 120.385 16.1506 121.032 17.3094C121.68 18.4682 122.004 19.7036 122.004 21.0154C122.004 22.3054 121.758 23.4533 121.267 24.4591C120.798 25.4649 120.172 26.3067 119.39 26.9845C118.631 27.6623 117.793 28.1761 116.877 28.5259C115.961 28.8757 115.068 29.0507 114.196 29.0507ZM114.196 27.8372C115.291 27.8372 116.151 27.5201 116.777 26.8861C117.425 26.252 117.882 25.4211 118.151 24.3935C118.441 23.344 118.586 22.218 118.586 21.0154C118.586 19.8566 118.441 18.7962 118.151 17.8341C117.86 16.8721 117.391 16.0959 116.743 15.5056C116.095 14.9152 115.246 14.62 114.196 14.62C113.102 14.62 112.231 14.9371 111.583 15.5711C110.935 16.1834 110.477 17.0033 110.209 18.0309C109.941 19.0367 109.807 20.1518 109.807 21.3762C109.807 22.5132 109.941 23.5736 110.209 24.5575C110.499 25.5414 110.968 26.3395 111.616 26.9517C112.264 27.542 113.124 27.8372 114.196 27.8372Z" stroke="#001D23" mask="url(#path-2-outside-1_2324_24513)"/>
<path d="M126.46 29.1163C126.259 29.1163 126.102 29.0507 125.991 28.9195C125.879 28.7883 125.823 28.6352 125.823 28.4603V9.30694C125.823 8.91338 125.801 8.55261 125.756 8.22465C125.734 7.87481 125.611 7.60151 125.388 7.40473C125.164 7.18608 124.74 7.07675 124.114 7.07675C123.913 7.07675 123.723 7.05489 123.545 7.01116C123.388 6.94557 123.31 6.74879 123.31 6.42082C123.31 6.09285 123.489 5.89607 123.846 5.83047C124.874 5.67742 125.656 5.52437 126.192 5.37132C126.75 5.21827 127.175 5.08708 127.465 4.97775C127.756 4.86843 128.012 4.80284 128.236 4.78097C128.415 4.75911 128.56 4.79191 128.671 4.87936C128.805 4.96682 128.872 5.14174 128.872 5.40411V15.3088H128.973C129.643 14.6528 130.392 14.1718 131.218 13.8657C132.045 13.5596 132.838 13.4066 133.597 13.4066C134.915 13.4066 136.099 13.7345 137.149 14.3905C138.222 15.0464 139.07 15.9538 139.696 17.1126C140.321 18.2496 140.634 19.5833 140.634 21.1138C140.634 22.6006 140.277 23.9453 139.562 25.1478C138.847 26.3504 137.909 27.3015 136.747 28.0012C135.586 28.7008 134.323 29.0507 132.961 29.0507C130.972 29.0507 129.252 28.515 127.8 27.4436H127.633C127.476 27.7716 127.32 28.1324 127.164 28.5259C127.029 28.9195 126.795 29.1163 126.46 29.1163ZM132.659 27.9356C133.999 27.9356 135.094 27.3343 135.943 26.1317C136.792 24.9292 137.216 23.3003 137.216 21.245C137.216 20.2174 137.049 19.2335 136.714 18.2933C136.401 17.3531 135.887 16.5769 135.172 15.9647C134.48 15.3525 133.564 15.0464 132.424 15.0464C131.665 15.0464 130.995 15.1776 130.414 15.44C129.833 15.7023 129.319 16.074 128.872 16.5551V25.2134C128.94 25.5195 129.118 25.8912 129.409 26.3285C129.721 26.7439 130.146 27.1157 130.682 27.4436C131.218 27.7716 131.877 27.9356 132.659 27.9356Z" stroke="#001D23" mask="url(#path-2-outside-1_2324_24513)"/>
<path d="M144.686 35.8068C144.038 35.8068 143.424 35.6647 142.843 35.3805C142.285 35.0962 141.838 34.7136 141.503 34.2326C141.168 33.7734 141 33.2705 141 32.7239C141.023 32.1336 141.157 31.6744 141.402 31.3464C141.626 31.0403 141.883 30.8217 142.173 30.6905C142.463 30.5812 142.709 30.5156 142.91 30.4937C143.111 30.4719 143.19 30.4609 143.145 30.4609C143.569 30.4609 143.893 30.5375 144.117 30.6905C144.34 30.8654 144.452 31.0075 144.452 31.1169C144.452 31.1606 144.362 31.259 144.184 31.412C144.027 31.587 143.938 31.8821 143.916 32.2976C143.893 32.6911 144.016 33.0737 144.284 33.4454C144.552 33.8171 144.965 34.003 145.524 34.003C146.149 34.003 146.719 33.7734 147.233 33.3143C147.747 32.877 148.205 32.3304 148.607 31.6744C149.009 31.0185 149.355 30.3844 149.646 29.7722C149.802 29.2912 149.791 28.7883 149.612 28.2635C149.076 27.0829 148.551 25.8256 148.037 24.4919C147.523 23.1582 147.021 21.8681 146.529 20.6219C146.06 19.3756 145.591 18.2824 145.122 17.3422C144.764 16.5332 144.418 15.9647 144.083 15.6367C143.748 15.2869 143.245 15.0683 142.575 14.9808C142.285 14.9371 142.084 14.8933 141.972 14.8496C141.883 14.8059 141.827 14.6419 141.804 14.3577C141.782 13.986 141.883 13.7892 142.106 13.7673C142.352 13.7236 142.642 13.6908 142.977 13.6689C144.362 13.6033 145.446 13.8001 146.228 14.2593C147.01 14.7184 147.646 15.4946 148.138 16.5878C148.45 17.2657 148.797 18.1074 149.176 19.1132C149.556 20.119 149.958 21.1357 150.383 22.1633C150.807 23.191 151.221 24.1202 151.623 24.9511H151.723L155.007 16.3583C155.231 15.7242 155.242 15.3306 155.041 15.1776C154.84 15.0245 154.404 14.948 153.734 14.948C153.533 14.948 153.365 14.9371 153.231 14.9152C153.097 14.8715 153.019 14.6856 152.997 14.3577C152.997 14.2265 153.03 14.0844 153.097 13.9313C153.186 13.7783 153.309 13.7017 153.466 13.7017C154.114 13.7236 154.672 13.7455 155.141 13.7673C155.61 13.7892 156.135 13.8001 156.716 13.8001C157.118 13.8001 157.442 13.8001 157.688 13.8001C157.934 13.7783 158.19 13.7673 158.459 13.7673C158.727 13.7455 159.073 13.7236 159.497 13.7017C159.676 13.7017 159.799 13.7783 159.866 13.9313C159.955 14.0844 160 14.2265 160 14.3577C159.978 14.6856 159.888 14.8715 159.732 14.9152C159.598 14.9371 159.442 14.948 159.263 14.948C158.526 14.948 157.934 15.0792 157.487 15.3416C157.062 15.6039 156.694 16.1178 156.381 16.883C156.381 16.883 156.258 17.1673 156.012 17.7357C155.789 18.3042 155.487 19.0476 155.108 19.9659C154.728 20.8842 154.326 21.8572 153.901 22.8849C153.477 23.8906 153.075 24.8527 152.695 25.771C152.315 26.6893 152.002 27.4436 151.757 28.034C151.511 28.6243 151.377 28.9413 151.355 28.9851C151.064 29.6629 150.707 30.3953 150.282 31.1825C149.88 31.9915 149.4 32.7348 148.841 33.4126C148.305 34.1123 147.691 34.6808 146.998 35.1181C146.306 35.5772 145.535 35.8068 144.686 35.8068Z" stroke="#001D23" mask="url(#path-2-outside-1_2324_24513)"/>
<defs>
<linearGradient id="paint0_linear_2324_24513" x1="0" y1="18.5015" x2="42.1054" y2="18.5015" gradientUnits="userSpaceOnUse">
<stop stop-color="#F86CA7"/>
<stop offset="1" stop-color="#FF7F18"/>
</linearGradient>
<clipPath id="clip0_2324_24513">
<rect width="42.1054" height="37.0002" fill="white"/>
</clipPath>
</defs>
</svg>
